# xmcd
#
# Track frame offsets:
#	150
#	18675
#	37153
#	55078
#	73362
#	87626
#	110929
#	137233
#	168262
#	195443
#	213938
#	228140
#	255406
#
# Disc length: 3550 seconds
#
# Revision: 0
# Processed by: cddbd v1.5.2PL0 Copyright (c) Steve Scherf et al.
# Submitted via: EasyCDDAExtractor 2010.6.0.0
#
DISCID=bf0ddc0d
DTITLE=Blúz Tér 10 - Jókedv Blues
DYEAR=2010
DGENRE=Blues
TTITLE0=Cirkusz
TTITLE1=Jókedv
TTITLE2=Fut az idő
TTITLE3=Rock 'n' roll
TTITLE4=Sárga busz
TTITLE5=Hinták
TTITLE6=Férfi és nő
TTITLE7=esem itsE
TTITLE8=Ritmus
TTITLE9=Hétfő reggel
TTITLE10=Ötös
TTITLE11=Végtelen út
TTITLE12=Jó bőr
EXTD=
EXTT0=
EXTT1=
EXTT2=
EXTT3=
EXTT4=
EXTT5=
EXTT6=
EXTT7=
EXTT8=
EXTT9=
EXTT10=
EXTT11=
EXTT12=
PLAYORDER=
